<svg xmlns="http://www.w3.org/2000/svg" width="69" height="63" fill="none" viewBox="0 0 69 63"><g fill="#0d96a0" opacity=".2"><path d="M61.385 53.813c-2.237 3.791-4.477 6.677-7.972 3.535-1.8-1.617-1.38-4.548-1.677-6.34-.36-2.15-1.167-3.132.037-4.845 1.173-1.671 3.975-1.127 6.293-1.137 2.459-.01 4.179-.69 6.018 1.476 1.637 1.925 1.099 3.778-2.699 7.311M42.49 43.33c1.94-1.965 9.813 2.258 5.64 5.408-3.107 2.342-7.571-3.34-5.64-5.408"/><path d="M44.062 51.138c1.82-2.073 9.857 1.763 5.89 5.146-2.956 2.514-7.974-3.095-5.89-5.146m1.944-12.331c-.982 2.614 5.902 8.379 7.057 3.189.861-3.865-6.294-5.939-7.057-3.189m8.914-1.129c-1.904 1.999 2.042 8.802 5.771 5.272 2.809-2.66-4.044-7.403-5.77-5.272M23.895 22.881c-2.238 3.791-4.477 6.677-7.973 3.535-1.799-1.617-1.379-4.548-1.677-6.34-.359-2.15-1.167-3.131.037-4.844 1.173-1.672 3.976-1.128 6.294-1.137 2.459-.011 4.178-.69 6.018 1.475 1.637 1.926 1.099 3.779-2.699 7.311M5 12.398c1.94-1.965 9.813 2.258 5.64 5.409-3.107 2.342-7.571-3.34-5.64-5.409"/><path d="M6.571 20.207c1.822-2.074 9.857 1.762 5.89 5.145-2.955 2.515-7.973-3.095-5.89-5.146M8.516 7.875c-.982 2.614 5.902 8.379 7.057 3.19.861-3.865-6.295-5.94-7.057-3.19m8.914-1.129c-1.905 1.999 2.041 8.803 5.771 5.272 2.809-2.66-4.044-7.403-5.77-5.272m30.374 16.726c-4.097 1.61-7.639 2.505-8.459-2.123-.422-2.382 1.714-4.433 2.582-6.028 1.04-1.915 1.008-3.187 3.012-3.795 1.953-.595 3.827 1.56 5.659 2.979 1.944 1.505 3.717 2.029 3.834 4.867.104 2.525-1.46 3.654-6.628 4.1M39.369 3.578c2.74-.353 6.343 7.82 1.115 7.734-3.89-.067-3.91-7.293-1.115-7.734"/><path d="M35.8 10.699c2.712-.513 6.683 7.457 1.474 7.68-3.877.163-4.378-7.347-1.473-7.68m9.124-8.52c-2.383 1.454-.508 10.236 3.598 6.857C51.58 6.521 47.218.481 44.925 2.18m7.72 4.597c-2.732.403-3.811 8.193 1.301 7.708 3.851-.367 1.37-8.324-1.301-7.708"/></g></svg>